<svg width="25" height="47" viewBox="0 0 25 47" fill="none" xmlns="http://www.w3.org/2000/svg">
<g clip-path="url(#clip0_16_243)">
<path d="M25 2.2381C24.7934 2.03463 24.5868 1.83117 24.5868 1.62771C24.3802 1.42424 24.3802 1.42424 24.1736 1.42424C22.9339 0.406926 21.4876 0 19.8347 0C16.1157 0 11.157 2.44156 6.81818 6.71429C3.92562 9.56277 1.65289 13.0216 0.619835 16.2771C0.206612 17.2944 0 18.5152 0 19.5325C0 21.3636 0.619835 22.9913 1.65289 24.0087C1.8595 24.2121 2.06612 24.4156 2.06612 24.619L25 47.2035V44.355L6.40496 26.0433C7.43802 26.0433 8.67769 25.8398 9.91736 25.4329C10.7438 25.2294 11.5702 24.8225 12.3967 24.4156L25 36.8268V33.9784L14.2562 23.3983C15.7025 22.5844 17.3554 21.3636 18.8017 20.1429L25 26.2468V23.3983L20.2479 18.5152C21.4876 17.0909 22.7273 15.6667 23.5537 14.039L25 15.4632V12.6147L24.5868 12.2078C24.7934 12.0043 24.7934 11.5974 25 11.3939V2.2381ZM23.7603 9.15584C22.7273 12.0043 20.6612 15.0563 17.9752 17.7013C15.2893 20.3463 12.1901 22.381 9.29752 23.3983C8.26446 23.8052 7.2314 23.8052 6.40496 23.8052C5.16529 23.8052 3.92562 23.3983 3.30579 22.7879C2.06612 21.5671 1.8595 19.5325 2.68595 16.8874C3.5124 13.8355 5.3719 10.7835 8.26446 8.13853C11.9835 4.27273 16.5289 2.03463 19.8347 2.03463C21.0744 2.03463 22.1074 2.2381 22.7273 3.05195L23.1405 3.45887C24.3802 4.47619 24.3802 6.51082 23.7603 9.15584Z" fill="black"/>
</g>
<defs>
<clipPath id="clip0_16_243">
<rect width="25" height="47" fill="white"/>
</clipPath>
</defs>
</svg>
