<svg width="43" height="38" viewBox="0 0 43 38" fill="none" xmlns="http://www.w3.org/2000/svg">
<g clip-path="url(#clip0_16_241)">
<path d="M41.0804 0C41.0804 5.31606 40.1205 11.4197 37.0491 17.7202C35.7054 20.2798 32.442 26.7772 25.1473 31.5026C21.5 33.6684 18.0447 35.0466 14.9732 35.6373C16.317 33.8653 17.2768 31.5026 17.2768 29.1399C17.2768 28.7461 17.2768 28.1554 17.0848 27.7617C17.0848 27.5648 17.0848 27.3679 17.0848 27.3679C16.7009 25.2021 15.5491 23.2332 13.8214 21.8549C15.933 21.2643 18.0447 20.4767 19.7723 19.2953C25.5313 15.5544 29.1786 8.46632 29.7545 0.196891H27.8348C27.067 7.87565 23.8036 14.3731 18.6205 17.7202C16.317 19.2953 13.8214 20.0829 10.942 20.4767H9.98215C9.40626 20.4767 9.02233 20.2798 8.44644 20.2798C3.64733 20.2798 -0.191956 24.2176 -0.191956 29.1399C-0.191956 32.6839 1.72769 35.6373 4.60715 37.2124C5.75894 37.8031 7.10269 38.1969 8.44644 38.1969H8.6384H9.21429C13.4375 38.1969 19.5804 37.2124 25.9152 33.2746C33.7857 28.3523 37.2411 21.4611 38.5848 18.9016C41.8482 12.4041 42.808 5.90674 43 0.393782H41.0804V0ZM9.21429 36.0311C9.02233 36.0311 8.83037 36.0311 8.6384 36.0311C4.99108 36.0311 1.91965 32.8808 1.91965 29.1399C1.91965 25.399 4.99108 22.2487 8.6384 22.2487C11.9018 22.2487 14.5893 24.6114 15.1652 27.7617C15.1652 27.7617 15.1652 27.9586 15.1652 28.1554C15.7411 31.5026 13.0536 35.0466 9.21429 36.0311Z" fill="black"/>
</g>
<defs>
<clipPath id="clip0_16_241">
<rect width="43" height="38" fill="white"/>
</clipPath>
</defs>
</svg>
