<svg width="33" height="4" viewBox="0 0 33 4" fill="none" xmlns="http://www.w3.org/2000/svg">
<g clip-path="url(#clip0_16_233)">
<path d="M7.17391 4H1.5942C0.637681 4 0 3.2 0 2C0 0.8 0.637681 0 1.5942 0H7.17391C8.13043 0 8.76812 0.8 8.76812 2C8.76812 3.2 8.13043 4 7.17391 4Z" fill="#112340"/>
<path d="M19.6087 4H13.3913C12.4348 4 11.7971 3.2 11.7971 2C11.7971 0.8 12.4348 0 13.3913 0H19.6087C20.5652 0 21.2029 0.8 21.2029 2C21.2029 3.2 20.5652 4 19.6087 4Z" fill="#112340"/>
<path d="M31.4058 4H25.8261C24.8696 4 24.2319 3.2 24.2319 2C24.2319 0.8 24.8696 0 25.8261 0H31.4058C32.3623 0 33 0.8 33 2C33 3.2 32.3623 4 31.4058 4Z" fill="#112340"/>
</g>
<defs>
<clipPath id="clip0_16_233">
<rect width="33" height="4" fill="white"/>
</clipPath>
</defs>
</svg>
