<svg width="71" height="50" viewBox="0 0 71 50" fill="none" xmlns="http://www.w3.org/2000/svg">
<g clip-path="url(#clip0_16_224)">
<path d="M47.5408 14.4545C43.9184 14.4545 40.6582 15.3636 37.7602 16.8182C33.9566 18.6364 30.6964 21.7273 28.523 25.3636C28.1607 25.9091 27.7985 26.4545 27.6173 27C26.1684 30.0909 25.2628 33.5455 25.2628 37.1818C25.2628 40.8182 26.1684 44.0909 27.6173 47.1818H29.6097C27.9796 44.2727 27.074 40.8182 27.074 37.1818C27.074 34.0909 27.7985 31.1818 29.0663 28.4545C29.2475 27.9091 29.6097 27.3636 29.9719 26.8182C32.3265 22.6364 36.1301 19.5455 40.6582 17.9091C42.8316 17 45.3673 16.6364 47.9031 16.6364C59.3138 16.6364 68.551 25.9091 68.551 37.3636C68.551 41 67.6454 44.4545 66.0153 47.3636H68.0077C69.4566 44.2727 70.3623 41 70.3623 37.3636C70 24.4545 59.8571 14.4545 47.5408 14.4545Z" fill="#112340"/>
<path d="M54.0612 37.7273C54.0612 41 53.3367 44.2727 52.0689 47H12.9464C11.6786 44.2727 10.9541 41 10.9541 37.7273C10.9541 34.4545 11.6786 31.3636 12.9464 28.4545C13.3087 27.9091 13.4898 27.1818 13.852 26.6363C15.4821 23.9091 17.6556 21.5454 20.3724 19.7273C20.9158 19.3636 21.4592 19 22.0025 18.8182C25.0816 17 28.7041 16.0909 32.5076 16.0909C34.3189 16.0909 35.949 16.2727 37.7602 16.6364C38.6658 16.8182 39.5714 17.1818 40.477 17.5454C48.2653 20.6364 54.0612 28.4545 54.0612 37.7273Z" fill="#EEC95B"/>
<path d="M0.321885 -2.94047L-0.958832 -1.65483L42.7136 42.1854L43.9943 40.8997L0.321885 -2.94047Z" fill="#112340"/>
<path d="M7.66438 20.3983L6.38367 21.6839L18.2943 33.6403L19.5751 32.3547L7.66438 20.3983Z" fill="#112340"/>
</g>
<defs>
<clipPath id="clip0_16_224">
<rect width="71" height="50" fill="white"/>
</clipPath>
</defs>
</svg>
