<svg width="204" height="203" viewBox="0 0 204 203" fill="none" xmlns="http://www.w3.org/2000/svg">
<g clip-path="url(#clip0_18_245)">
<path d="M197.73 153.457C197.102 163.744 190.205 172.141 182.053 177.809C173.693 183.477 163.66 186.836 153.627 187.465C148.611 187.885 143.385 187.465 138.369 186.626C133.352 185.576 128.545 183.897 123.738 181.797C114.332 177.809 104.717 172.77 94.2664 171.931C84.0246 171.091 73.7828 174.24 63.75 172.141C59.1516 171.301 54.9713 169.202 51.8361 166.053C48.9098 163.114 46.6107 159.335 45.3566 155.137C42.6393 146.32 44.5205 136.873 49.1188 128.896C54.3443 119.869 62.4959 113.571 71.0656 108.113C79.8443 102.445 89.041 97.4064 95.5205 89.2192C97.8197 86.4902 99.4918 83.5512 100.746 80.1924C102 75.1541 102.627 69.696 103.463 64.6577C103.672 62.7684 104.09 61.0889 104.508 59.1996C105.135 55.211 106.18 51.2223 108.061 47.6536C109.525 44.9245 111.824 42.4054 114.123 40.516C114.75 40.0962 115.168 39.4664 115.795 39.0465C123.529 33.1686 133.98 32.5388 143.176 34.0083C153.209 35.4778 163.033 39.6763 170.557 46.8139C177.455 53.3216 182.053 62.5584 182.68 72.2151C183.307 82.5016 179.754 92.3682 178.5 102.445C177.873 107.273 177.873 112.311 179.545 117.14C181.008 121.548 183.725 125.537 186.443 129.105C189.16 132.674 192.086 136.033 194.385 140.022C196.684 144.01 197.939 148.629 197.73 153.457Z" fill="#C6C6C6"/>
<path d="M149.656 180.958C147.357 180.958 145.057 180.748 142.758 180.538C137.951 180.118 133.143 178.858 126.664 176.969C124.783 176.339 122.693 175.709 120.811 175.08C112.66 172.351 104.09 169.622 95.3115 169.622H95.1025C90.5041 169.622 85.9057 170.251 81.3074 171.091C75.2459 171.931 68.9754 172.98 62.7049 172.351C57.4795 171.721 52.8811 170.041 49.1189 167.102C45.7746 164.373 43.0574 160.805 41.3852 156.816C37.832 148.629 38.668 139.182 43.4754 130.155C48.7008 120.289 57.6885 113.361 65.6311 107.693C66.8852 106.853 67.9303 106.013 69.1844 105.174C76.709 99.9255 84.6516 94.4674 90.0861 87.12C92.1762 84.3909 93.8484 81.4519 94.8935 78.0931C95.5205 74.7342 95.7295 71.1655 96.1475 67.8066C96.3566 66.1272 96.5656 64.2378 96.5656 62.5584C96.7746 60.6691 96.9836 58.7797 97.4016 57.1003C97.8197 52.272 98.8648 48.4933 100.537 45.3444C102 42.4054 104.09 39.8862 106.807 37.577C107.434 36.9473 108.061 36.5274 108.48 36.1075C117.049 28.97 129.172 28.1303 137.742 28.7601C149.238 29.5998 160.107 33.1686 168.049 39.2565C176.41 45.5543 181.635 54.3712 182.889 63.6081C183.725 70.1158 182.889 76.4136 181.844 82.7115C181.426 86.2802 180.799 90.0589 180.59 93.6277C180.381 99.2958 181.008 103.704 182.68 107.693C184.352 111.681 187.07 115.04 190.832 118.609C191.459 119.239 192.086 119.869 192.713 120.498C195.221 123.018 197.939 125.747 200.029 128.686C202.955 132.884 204.627 137.503 204.627 142.121C204.627 154.717 195.221 163.534 189.578 167.732C181.217 174.03 170.975 178.019 159.898 179.488C156.135 180.538 152.791 180.958 149.656 180.958ZM95.3115 168.362C104.299 168.362 113.078 171.091 121.23 173.82C123.111 174.45 125.201 175.08 127.082 175.709C133.352 177.599 138.16 178.648 142.967 179.278C148.402 179.908 153.627 179.698 159.061 179.068C169.93 177.599 179.963 173.61 188.115 167.522C193.549 163.534 202.746 154.927 202.746 142.961C202.746 138.552 201.283 134.354 198.566 130.365C196.475 127.426 193.967 124.697 191.459 122.178C190.832 121.548 190.205 120.918 189.578 120.289C186.234 116.93 183.098 113.151 181.217 108.952C179.545 104.964 178.918 100.135 179.127 94.2575C179.336 90.4788 179.963 86.7001 180.381 83.1313C181.217 77.0434 182.262 70.5357 181.426 64.4478C180.381 55.6308 175.156 47.0238 167.004 40.9359C159.271 35.0579 148.82 31.4891 137.533 30.6494C129.172 30.0196 117.467 30.8594 109.316 37.577C108.689 37.9969 108.27 38.4168 107.643 39.0465C105.135 41.1458 103.045 43.6649 101.791 46.394C100.328 49.5429 99.2828 53.1117 98.8648 57.7301C98.6557 59.4095 98.2377 61.2989 98.0287 63.1882C97.8197 64.8676 97.6107 66.757 97.6107 68.4364C97.1926 71.7952 96.9836 75.364 96.3566 78.7228C95.3115 82.0817 93.6394 85.2306 91.3402 88.1696C85.6967 95.727 77.7541 101.185 70.0205 106.433C68.7664 107.273 67.7213 108.113 66.4672 108.952C58.7336 114.411 49.9549 121.338 44.7295 130.785C40.1311 139.392 39.2951 148.419 42.6393 156.186C44.3115 160.175 46.8197 163.534 49.9549 166.053C53.5082 168.782 57.8975 170.461 62.7049 171.091C68.7664 171.721 75.0369 170.881 81.0984 169.831C85.6967 169.202 90.2951 168.362 95.1025 168.362C95.1025 168.362 95.1025 168.362 95.3115 168.362Z" fill="#C6C6C6"/>
<path d="M38.7989 21.7091C40.2984 15.2743 36.3203 8.83699 29.9134 7.3309C23.5066 5.82481 17.0972 9.82029 15.5977 16.255C14.0981 22.6898 18.0762 29.1271 24.4831 30.6332C30.8899 32.1393 37.2993 28.1439 38.7989 21.7091Z" fill="#4B948C"/>
<path d="M69.1844 55.4209C71.9549 55.4209 74.2008 53.1652 74.2008 50.3826C74.2008 47.6001 71.9549 45.3444 69.1844 45.3444C66.4139 45.3444 64.168 47.6001 64.168 50.3826C64.168 53.1652 66.4139 55.4209 69.1844 55.4209Z" fill="#4B948C"/>
<path d="M85.2787 30.8594L74.6189 38.2068L62.9139 32.5388L61.8689 19.5233L72.5287 12.1758L84.2336 17.8438L85.2787 30.8594Z" fill="#4B948C"/>
<path d="M34.9057 62.1386C35.7418 60.0393 36.1598 57.7301 36.1598 55.6308C36.1598 53.3216 35.7418 51.2223 34.9057 49.1231L30.0984 51.0124C29.6803 49.7528 28.8443 48.4933 28.0082 47.4436L31.9795 44.2947C29.2623 40.9359 25.082 38.4168 20.6926 37.787L19.8566 42.8252C19.2295 42.6153 18.6025 42.6153 17.7664 42.6153C17.1393 42.6153 16.3033 42.6153 15.6762 42.8252L14.8402 37.787C12.75 38.2068 10.4508 38.8366 8.56968 40.0962C6.68853 41.1458 5.0164 42.6153 3.55328 44.2947L7.52459 47.4436C6.68853 48.4933 6.06148 49.7528 5.43443 51.0124L0.627054 49.1231C-0.209012 51.2223 -0.627045 53.5315 -0.627045 55.6308C-0.627045 57.94 -0.209012 60.0393 0.627054 62.1386L5.43443 60.2492C5.85246 61.5088 6.68853 62.7684 7.52459 63.818L3.55328 66.9669C5.0164 68.6463 6.68853 70.1158 8.56968 71.1655C10.4508 72.2151 12.541 73.0548 14.8402 73.4747L15.6762 68.4364C16.3033 68.6463 16.9303 68.6463 17.7664 68.6463C18.3934 68.6463 19.2295 68.6463 19.8566 68.4364L20.9016 73.4747C25.291 72.8449 29.4713 70.3258 32.1885 66.9669L28.2172 63.818C29.0533 62.7684 29.6803 61.5088 30.3074 60.2492L34.9057 62.1386ZM18.1844 62.9783C14.2131 62.9783 10.8689 59.6194 10.8689 55.6308C10.8689 51.6422 14.2131 48.2834 18.1844 48.2834C22.1557 48.2834 25.5 51.6422 25.5 55.6308C25.5 59.6194 22.1557 62.9783 18.1844 62.9783Z" fill="#4B948C"/>
<path d="M55.1803 54.5812L52.4631 54.3712L51.209 54.1613C50.791 54.1613 50.1639 53.9514 49.7459 53.9514L47.8648 53.5315C47.6557 53.5315 47.6558 53.3216 47.4467 53.3216C47.4467 53.1117 47.4467 53.1117 47.4467 52.9018L48.9098 47.4436C47.6557 47.0238 46.6107 46.6039 45.3566 45.9741L42.6394 51.0124C42.4303 51.2223 42.2213 51.4323 41.8033 51.2223C39.7131 50.1727 37.832 48.4933 35.9508 46.8139C34.0697 44.9245 32.6066 42.8252 31.5615 40.9359C31.3525 40.726 31.5615 40.3061 31.7705 40.0962L36.7869 37.3671C36.1598 36.3175 35.7418 35.0579 35.3238 33.7983L29.8894 35.2678C29.6803 35.2678 29.6803 35.2678 29.4713 35.2678C29.2623 35.2678 29.2623 35.0579 29.2623 34.848L28.8443 32.9586C28.8443 32.5388 28.6353 31.909 28.6353 31.4891L28.4262 30.2296L28.2172 27.2906L28.4262 24.5615L28.6353 23.302C28.6353 22.8821 28.8443 22.2523 28.8443 21.8325L29.2623 19.9431C29.2623 19.7332 29.4713 19.7332 29.4713 19.5233C29.6803 19.5233 29.6803 19.5233 29.8894 19.5233L35.3238 20.9928C35.7418 19.7332 36.1598 18.6836 36.7869 17.424L31.7705 14.6949C31.5615 14.485 31.3525 14.2751 31.5615 13.8552C32.6066 11.7559 34.0697 9.8666 35.9508 7.97725C37.832 6.0879 39.9221 4.61841 41.8033 3.56877C42.0123 3.35884 42.4303 3.56877 42.6394 3.7787L45.3566 8.81696C46.4017 8.18718 47.6557 7.76732 48.9098 7.34747L47.4467 1.88935C47.4467 1.67942 47.4467 1.67942 47.4467 1.46949C47.4467 1.25957 47.6557 1.25957 47.8648 1.25957L49.7459 0.83971C50.1639 0.83971 50.791 0.629783 51.209 0.629783L52.4631 0.419855L55.1803 0L57.8976 0.209928L59.1516 0.419855C59.5697 0.419855 60.1967 0.629783 60.6148 0.629783L62.7049 1.04964C62.9139 1.04964 62.9139 1.25957 63.123 1.25957C63.123 1.46949 63.123 1.46949 63.123 1.67942L61.6598 7.13754C62.9139 7.55739 63.959 7.97725 65.2131 8.60703L67.9303 3.56877C68.1394 3.35884 68.3484 3.14891 68.7664 3.35884C70.8566 4.40848 72.7377 5.87797 74.6189 7.76732C76.5 9.65667 77.9631 11.7559 79.0082 13.6453C79.2172 13.8552 79.0082 14.2751 78.7992 14.485L73.7828 17.2141C74.4098 18.4736 75.0369 19.7332 75.4549 21.2027C75.4549 21.4126 75.4549 21.8325 75.0369 21.8325C74.8279 21.8325 74.4098 21.8325 74.4098 21.4126C73.9918 19.9431 73.3648 18.4736 72.7377 17.2141C72.7377 17.0041 72.7377 17.0041 72.7377 16.7942C72.7377 16.5843 72.9467 16.5843 72.9467 16.3744L77.9631 13.6453C76.5 12.1758 75.2459 10.4964 73.5738 8.81696C71.9017 7.13754 70.2295 5.87797 68.3484 4.82833L65.6312 9.8666C65.6312 10.0765 65.4221 10.0765 65.2131 10.0765C65.0041 10.0765 65.0041 10.0765 64.7951 10.0765C63.541 9.23682 62.0779 8.81696 60.6148 8.3971C60.4057 8.3971 60.1967 7.97725 60.1967 7.76732L61.6598 2.09928L60.6148 1.67942C60.1967 1.67942 59.7787 1.46949 59.1516 1.46949L57.8976 1.25957L55.1803 1.04964L52.4631 1.25957L51.209 1.46949C50.791 1.46949 50.1639 1.67942 49.7459 1.67942L48.7008 2.09928L50.1639 7.55739C50.1639 7.76732 50.1639 8.18718 49.7459 8.18718C48.2828 8.60703 46.8197 9.23681 45.5656 9.8666C45.3566 9.8666 45.3566 9.8666 45.1476 9.8666C44.9385 9.8666 44.9385 9.65667 44.7295 9.65667L42.0123 4.61841C40.3402 5.66805 38.459 6.92761 36.7869 8.60703C35.1148 10.2865 33.8607 11.9659 32.8156 13.8552L37.832 16.7942C38.041 16.7942 38.041 17.0041 38.041 17.2141C38.041 17.424 38.041 17.424 38.041 17.6339C37.2049 18.8935 36.7869 20.363 36.3689 21.8325C36.3689 22.0424 35.9508 22.2523 35.7418 22.2523L30.3074 20.7828L30.0984 22.0424C30.0984 22.4623 29.8894 22.8821 29.8894 23.302L29.6803 24.5615L29.2623 27.2906L29.4713 30.0196L29.6803 31.2792C29.6803 31.6991 29.8894 32.3289 29.8894 32.7487L30.0984 34.0083L35.5328 32.5388C35.7418 32.5388 36.1598 32.5388 36.1598 32.9586C36.5779 34.4281 37.2049 35.8976 37.832 37.1572C37.832 37.3671 37.832 37.3671 37.832 37.577C37.832 37.787 37.623 37.787 37.623 37.9969L32.6066 40.726C33.6517 42.4054 34.9057 44.2947 36.5779 45.9741C38.25 47.6536 39.9221 48.9131 41.8033 49.9628L44.5205 44.9245C44.5205 44.7146 44.7295 44.7146 44.9385 44.7146C45.1476 44.7146 45.1476 44.7146 45.3566 44.7146C46.6107 45.5543 48.0738 45.9741 49.5369 46.394C49.7459 46.394 49.9549 46.8139 49.9549 47.0238L48.7008 52.4819L49.9549 52.6918C50.373 52.6918 50.791 52.9018 51.418 52.9018L52.6721 53.1117L55.3894 53.3216C55.8074 53.3216 56.0164 53.5315 56.0164 53.9514C55.8074 54.3713 55.5984 54.5812 55.1803 54.5812Z" fill="white"/>
<path d="M55.1803 40.0962C48.0738 40.0962 42.4303 34.4281 42.4303 27.2906C42.4303 20.1531 48.0738 14.485 55.1803 14.485C62.2869 14.485 67.9303 20.1531 67.9303 27.2906C67.9303 34.4281 62.2869 40.0962 55.1803 40.0962ZM55.1803 15.5346C48.7008 15.5346 43.4754 20.7828 43.4754 27.2906C43.4754 33.7983 48.7008 39.0465 55.1803 39.0465C61.6598 39.0465 66.8852 33.5884 66.8852 27.2906C66.8852 20.7828 61.6598 15.5346 55.1803 15.5346Z" fill="white"/>
<path d="M66.6762 88.7994L48.9098 109.162V116.3H29.0533L26.7541 90.0589C26.5451 88.3795 26.9631 86.4902 27.5902 85.0207L30.9344 77.0434C32.6066 73.2647 36.3689 70.7456 40.5492 70.7456H50.373C54.3443 70.7456 57.8976 73.0548 59.7787 76.6236L59.9877 77.2534C59.9877 77.2534 63.541 76.4137 67.3033 84.3909C68.1394 85.6505 67.7213 87.5398 66.6762 88.7994Z" fill="white"/>
<path d="M187.906 149.468L186.652 184.526C186.234 194.393 178.291 202.16 168.467 202.16H86.5328L94.2664 171.931L52.6721 175.919C34.9057 177.179 21.9467 167.102 22.3648 150.728L23.8279 116.3H51.418V140.022C51.418 140.022 76.709 124.487 88.832 118.189C100.955 111.891 113.287 111.052 113.287 111.052C117.676 115.88 122.066 120.708 126.455 125.537C131.262 121.128 135.861 116.51 140.041 111.681L158.225 114.201C175.574 116.51 188.533 131.835 187.906 149.468Z" fill="#4B948C"/>
<path d="M81.7254 97.8263C81.0984 99.2958 80.4713 100.765 80.0533 102.235C79.6353 102.025 79.4262 102.025 79.0082 101.815C79.6353 100.345 80.0533 98.8759 80.6803 97.4064C80.8894 97.1965 81.0984 96.9866 81.3074 96.9866C81.5164 97.1965 81.7254 97.6164 81.7254 97.8263Z" fill="#232738"/>
<path d="M154.463 175.919C153.627 165.003 152.791 153.877 151.955 142.961C151.955 142.121 150.701 142.121 150.701 142.961C151.537 153.877 152.373 164.793 153.209 175.709C142.131 177.599 131.053 179.068 119.975 180.328C119.766 180.328 119.557 180.538 119.557 180.748C119.348 180.748 119.348 180.958 119.348 181.168V201.74C119.348 202.58 120.602 202.58 120.602 201.74V181.377C131.889 180.118 142.967 178.648 154.045 176.759C154.463 176.549 154.463 176.339 154.463 175.919Z" fill="#232738"/>
<path d="M99.7008 131.625C100.119 130.995 99.0738 130.365 98.6557 130.995C97.4016 133.514 96.1475 135.823 95.1025 138.342C94.0574 140.652 92.8033 142.751 91.7582 145.06C90.9221 147.159 90.0861 149.468 90.0861 151.778C90.0861 154.297 90.5041 156.606 91.5492 158.915C92.5943 161.434 94.0574 163.953 95.5205 166.263C95.9385 166.892 96.9836 166.263 96.5656 165.633C94.0574 161.644 91.5492 157.446 91.3402 152.617C91.1311 147.789 93.8484 143.591 95.9385 139.392C96.9836 136.873 98.2377 134.144 99.7008 131.625Z" fill="#232738"/>
<path d="M68.5574 86.4902C68.3484 88.1696 67.0943 89.4292 66.0492 90.4788C64.3771 92.3681 62.4959 94.2575 60.8238 96.3568C57.0615 100.345 53.5082 104.334 49.7459 108.533C49.5369 108.743 49.3279 108.952 49.1189 109.162C48.7008 109.792 47.8648 108.952 48.2828 108.323C48.7008 107.903 49.3279 107.273 49.7459 106.643C52.0451 104.124 54.3443 101.815 56.4344 99.2958C57.8976 97.8263 59.3607 96.1468 60.6148 94.6774C61.6598 93.6277 62.4959 92.5781 63.541 91.5284C64.5861 90.2689 66.0492 89.2192 66.8853 87.7497C67.7213 86.2803 66.8853 84.6008 66.0492 83.3413C65.2131 82.0817 64.3771 80.8221 63.123 79.5626C62.4959 78.9328 61.6598 77.8831 60.6148 77.6732C60.1967 77.6732 59.7787 77.6732 59.3607 77.8831C57.8976 78.7229 57.6885 80.4023 57.8976 81.8718C58.3156 83.5512 58.9426 85.0207 59.3607 86.4902C59.3607 86.7001 59.3607 86.91 59.3607 86.91C59.3607 87.12 59.1516 87.12 59.1516 87.3299C57.6885 88.5895 56.2254 89.6391 54.5533 90.8987C54.5533 91.1086 54.1353 91.3185 53.9262 91.3185C52.4631 90.8987 51 90.6887 49.5369 90.6887C47.4467 90.8987 45.3566 91.5284 43.6844 92.788C40.9672 94.6774 38.8771 97.6163 38.041 100.975C37.832 101.605 36.7869 101.395 36.9959 100.765C38.041 97.1965 40.1312 94.0476 43.2664 91.9483C45.1476 90.6887 47.4467 89.849 49.7459 89.6391C51.209 89.6391 52.6721 89.6391 54.1353 90.059C55.5984 89.0093 57.0615 87.7497 58.5246 86.7001C57.8976 84.8108 56.8525 82.9214 56.8525 80.8221C56.8525 79.1427 57.6885 77.4633 59.1516 76.8335C59.7787 76.6236 60.1967 76.6236 60.6148 76.6236C61.4508 76.8335 62.2869 77.2534 63.123 78.0931C64.3771 79.3526 65.6312 80.6122 66.4672 82.0817C67.7213 83.1313 68.7664 84.8108 68.5574 86.4902Z" fill="#232738"/>
<path d="M47.0287 79.1427V78.9328L41.5943 70.7456C41.1762 70.1158 40.1312 70.7456 40.5492 71.3754C42.2213 74.1044 44.1025 76.8335 45.7746 79.5626C45.1476 80.8221 44.7295 82.0817 43.8935 83.1313C43.2664 84.3909 42.4303 85.6505 41.5943 86.4902C40.7582 87.3299 39.2951 87.7497 38.459 86.7001C37.623 85.6505 37.623 84.3909 37.832 83.1313C38.25 81.6618 39.0861 80.1923 39.5041 78.7229C39.7131 78.0931 38.668 77.6732 38.459 78.5129C37.623 81.242 35.1148 84.6008 37.4139 87.5398C38.459 88.7994 39.9221 89.0093 41.1762 88.3795C42.6394 87.7497 43.4754 86.2802 44.3115 85.0207C45.3566 83.3413 46.1926 81.6618 46.8197 79.9824C47.2377 79.3526 47.0287 79.3526 47.0287 79.1427Z" fill="#232738"/>
<path d="M52.0451 78.5129C51.8361 80.4023 51.418 82.0817 51 83.7611C50.791 84.8108 50.373 85.8604 49.9549 86.7001C49.7459 87.12 49.3279 87.5398 49.1189 87.9597C48.0738 88.7994 46.6107 89.2192 45.3566 89.0093C43.8935 88.7994 42.4303 87.5398 42.8484 86.0703C43.0574 85.4405 44.1025 85.6505 43.8935 86.2803C43.6844 87.5398 45.3566 87.9597 46.1926 87.9597C47.2377 87.9597 48.2828 87.3299 48.7008 86.2803C49.1189 85.4405 49.5369 84.3909 49.7459 83.3413C49.7459 83.1313 49.9549 82.9214 49.9549 82.5016C50.373 81.242 50.582 79.7725 50.791 78.5129C50.791 78.5129 50.791 78.5129 50.791 78.303L49.7459 74.9442L48.4918 70.9555C48.2828 70.3258 49.3279 69.9059 49.5369 70.7456C49.5369 70.9555 49.7459 71.1655 49.7459 71.3754C50.373 73.6846 51.209 75.9938 51.8361 78.303C52.0451 78.303 52.0451 78.5129 52.0451 78.5129Z" fill="#232738"/>
<path d="M60.8238 62.9783V76.4137C60.4057 76.4137 59.7787 76.4137 59.3607 76.6236C57.6885 77.2534 57.0615 78.9328 57.0615 80.6122C57.0615 82.7115 58.1066 84.6008 58.7336 86.4902C57.2705 87.5398 55.8074 88.7994 54.3443 89.849C52.8812 89.4292 51.418 89.2192 49.9549 89.4292V86.7001C50.373 85.8604 50.791 84.8108 51 83.7611C51.6271 82.0817 52.0451 80.4023 52.0451 78.5129C52.0451 78.5129 52.0451 78.303 52.0451 78.0931C51.418 75.7839 50.582 73.4747 49.9549 71.1655V62.9783H60.8238Z" fill="#EEC95B"/>
<path d="M60.8238 96.3568V108.743H49.7459V108.533C53.5082 104.544 57.2705 100.345 60.8238 96.3568Z" fill="#EEC95B"/>
<path d="M49.9549 62.9783L53.9262 51.4323L57.2705 52.272L60.8238 62.9783H49.9549Z" fill="#232738"/>
<path d="M51.8361 57.5202L58.5246 56.2606L57.2705 52.272L53.9262 51.4323L51.8361 57.5202Z" fill="#EEC95B"/>
<path d="M52.6721 63.6081C52.6721 62.7684 51.418 62.7684 51.418 63.6081C51.418 72.2151 51.418 81.0321 51.209 89.6391C51.209 90.4788 52.2541 90.4788 52.4631 89.6391C52.6721 81.0321 52.8811 72.425 52.6721 63.6081Z" fill="#232738"/>
<path d="M57.4795 63.6081C57.4795 62.7684 56.2254 62.7684 56.2254 63.6081C56.6435 68.8563 56.8525 73.8945 56.8525 79.1427C56.8525 79.9824 58.1066 79.9824 58.1066 79.1427C58.1066 74.1045 57.8976 68.8563 57.4795 63.6081Z" fill="#232738"/>
<path d="M52.8812 104.334C52.4631 104.334 52.2541 104.544 52.2541 104.964C52.2541 106.013 52.2541 107.273 52.2541 108.323C52.2541 108.533 52.4631 108.952 52.8812 108.952C53.2992 108.952 53.5082 108.743 53.5082 108.323C53.5082 107.273 53.5082 106.013 53.5082 104.964C53.2992 104.544 53.0902 104.334 52.8812 104.334Z" fill="#232738"/>
<path d="M58.5246 97.8263C58.5246 101.395 58.5246 104.754 58.5246 108.323C58.5246 109.162 59.7787 109.162 59.7787 108.323C59.7787 104.754 59.7787 101.395 59.7787 97.8263C59.7787 96.9866 58.7336 96.9866 58.5246 97.8263Z" fill="#232738"/>
<path d="M119.348 184.526V202.37H76.291C76.291 202.37 57.6885 191.664 59.3607 187.255C61.0328 182.847 70.8566 188.935 70.8566 188.935C70.8566 188.935 60.4058 180.748 64.168 178.438C67.9303 176.129 74.8279 181.587 74.8279 181.587C74.8279 181.587 67.5123 175.919 71.4836 172.561C75.4549 169.202 91.5492 181.797 91.5492 181.797C91.5492 181.797 101.582 172.77 119.348 184.526Z" fill="white"/>
<path d="M119.348 203H76.291C76.082 203 76.082 203 75.873 203C72.7377 201.111 56.8525 191.664 58.5246 187.046C58.7336 186.206 59.3607 185.576 60.4057 185.366C62.0779 184.736 64.3771 185.366 66.4672 186.206C64.3771 184.107 62.4959 181.797 62.4959 179.908C62.4959 179.068 62.9139 178.438 63.75 178.019C65.8402 176.759 68.5574 177.389 70.8566 178.648C70.2295 177.599 69.6025 176.549 69.6025 175.29C69.6025 174.24 70.0205 173.19 71.0656 172.351C75.0369 168.992 88.623 179.068 91.5492 181.168C93.6394 179.488 103.672 173.4 119.557 184.107C119.766 184.316 119.766 184.526 119.766 184.736V202.58C119.975 202.79 119.557 203 119.348 203ZM76.5 201.74H118.721V184.946C101.791 173.82 92.3853 182.217 91.9672 182.427C91.7582 182.637 91.3402 182.637 91.1312 182.427C85.0697 177.809 74.6189 171.091 71.9017 173.19C71.2746 173.82 70.8566 174.24 70.8566 175.08C70.8566 177.179 73.7828 179.908 75.0369 180.958L75.2459 181.168C75.4549 181.377 75.6639 181.797 75.2459 182.007C75.0369 182.217 74.6189 182.427 74.4098 182.217C74.4098 182.217 74.4098 182.217 74.2008 182.007C72.3197 180.538 67.0943 177.179 64.3771 178.858C63.959 179.068 63.75 179.278 63.75 179.698C63.541 181.797 68.1394 186.206 70.8566 188.305C71.0656 188.515 71.2746 188.935 71.0656 189.145C70.8566 189.355 70.4385 189.565 70.2295 189.355C68.3484 188.305 63.123 185.366 60.8238 186.206C60.4058 186.416 59.9877 186.626 59.7787 187.255C58.9426 190.194 68.9754 197.332 76.5 201.74Z" fill="#232738"/>
<path d="M105.135 178.648C101.164 177.809 96.7746 178.438 93.4303 180.538C90.2951 182.427 87.9959 185.366 86.7418 188.935C84.2336 188.935 81.9344 189.145 79.6353 189.355C77.3361 189.775 74.6189 189.985 72.7377 191.244C71.9016 191.664 71.0656 192.504 71.2746 193.553C71.2746 194.393 72.1107 195.023 72.9467 195.233C75.2459 196.282 77.9631 196.492 80.4713 196.912C83.3975 197.332 86.3238 197.752 89.25 198.172C90.0861 198.172 90.0861 197.122 89.25 196.912C86.3238 196.492 83.6066 196.282 80.6803 195.653C79.2172 195.443 77.9631 195.233 76.5 194.813C75.2459 194.603 73.7828 194.393 72.7377 193.553C71.2746 192.504 74.4098 191.454 75.0369 191.244C76.291 190.824 77.5451 190.614 79.0082 190.404C81.7254 189.985 84.6517 189.775 87.5779 189.775C87.9959 189.775 88.2049 189.355 88.2049 189.145C90.7131 182.217 98.0287 178.019 105.344 179.488C105.553 179.908 105.762 178.858 105.135 178.648Z" fill="#232738"/>
<path d="M84.6517 187.255C81.3074 185.156 77.9631 183.057 74.6189 180.748C73.9918 180.328 73.3648 181.377 73.9918 181.797C77.3361 183.897 80.6803 185.996 84.0246 188.305C84.6517 188.725 85.0697 187.675 84.6517 187.255Z" fill="#232738"/>
<path d="M73.9918 190.614L70.8566 188.515C70.6476 188.305 70.2295 188.515 70.0205 188.725C69.8115 188.935 70.0205 189.355 70.2295 189.565L73.3648 191.664C73.5738 191.874 73.9918 191.664 74.2008 191.454C74.2008 191.034 74.2008 190.824 73.9918 190.614Z" fill="#232738"/>
<path d="M163.66 116.3C162.197 116.3 162.197 118.609 163.66 118.609C165.123 118.609 165.123 116.3 163.66 116.3Z" fill="#232738"/>
<path d="M159.48 116.93C158.016 116.93 158.016 119.239 159.48 119.239C160.943 119.239 160.943 116.93 159.48 116.93Z" fill="#232738"/>
<path d="M160.107 122.178C158.643 122.178 158.643 124.487 160.107 124.487C161.57 124.487 161.57 122.178 160.107 122.178Z" fill="#232738"/>
<path d="M165.75 124.487C164.287 124.487 164.287 126.796 165.75 126.796C167.213 126.796 167.213 124.487 165.75 124.487Z" fill="#232738"/>
<path d="M164.078 120.708C162.615 120.708 162.615 123.018 164.078 123.018C165.541 123.018 165.541 120.708 164.078 120.708Z" fill="#232738"/>
<path d="M171.602 121.548C170.139 121.548 170.139 123.857 171.602 123.857C173.066 123.857 173.066 121.548 171.602 121.548Z" fill="#232738"/>
<path d="M175.156 124.907C173.693 124.907 173.693 127.216 175.156 127.216C176.619 127.216 176.619 124.907 175.156 124.907Z" fill="#232738"/>
<path d="M168.467 117.979C167.004 117.979 167.004 120.289 168.467 120.289C169.93 120.289 169.93 117.979 168.467 117.979Z" fill="#232738"/>
<path d="M170.139 126.376C168.676 126.376 168.676 128.686 170.139 128.686C171.602 128.686 171.602 126.376 170.139 126.376Z" fill="#232738"/>
<path d="M155.508 119.869C154.045 119.869 154.045 122.178 155.508 122.178C156.971 122.178 156.971 119.869 155.508 119.869Z" fill="#232738"/>
<path d="M153.418 114.83C151.955 114.83 151.955 117.14 153.418 117.14C154.881 117.14 154.881 114.83 153.418 114.83Z" fill="#232738"/>
<path d="M94.8934 116.51C93.4303 116.51 93.4303 118.819 94.8934 118.819C96.3566 118.819 96.3566 116.51 94.8934 116.51Z" fill="#232738"/>
<path d="M100.537 114.62C99.0738 114.62 99.0738 116.93 100.537 116.93C102 116.93 102 114.62 100.537 114.62Z" fill="#232738"/>
<path d="M98.4467 118.399C96.9836 118.399 96.9836 120.708 98.4467 120.708C99.9098 120.918 99.9098 118.399 98.4467 118.399Z" fill="#232738"/>
<path d="M105.762 117.35C104.299 117.35 104.299 119.659 105.762 119.659C107.225 119.659 107.225 117.35 105.762 117.35Z" fill="#232738"/>
<path d="M109.107 112.731C107.643 112.731 107.643 115.04 109.107 115.04C110.57 115.25 110.57 112.731 109.107 112.731Z" fill="#232738"/>
<path d="M111.406 119.239C109.943 119.239 109.943 121.548 111.406 121.548C112.869 121.548 112.869 119.239 111.406 119.239Z" fill="#232738"/>
<path d="M102.836 121.338C101.373 121.338 101.373 123.647 102.836 123.647C104.299 123.647 104.299 121.338 102.836 121.338Z" fill="#232738"/>
<path d="M93.0123 123.647C91.5492 123.647 91.5492 125.957 93.0123 125.957C94.4754 126.166 94.4754 123.647 93.0123 123.647Z" fill="#232738"/>
<path d="M90.5041 119.449C89.041 119.449 89.041 121.758 90.5041 121.758C92.1762 121.968 92.1762 119.449 90.5041 119.449Z" fill="#232738"/>
<path d="M85.6967 123.018C84.2336 123.018 84.2336 125.327 85.6967 125.327C87.1598 125.327 87.1598 123.018 85.6967 123.018Z" fill="#232738"/>
<path d="M49.3279 108.952C49.3279 108.323 48.2828 108.323 48.2828 108.952C48.2828 111.262 48.2828 113.781 48.4918 116.09C48.4918 116.72 49.5369 116.72 49.5369 116.09C49.3279 113.571 49.3279 111.262 49.3279 108.952Z" fill="#232738"/>
<path d="M29.0533 116.93C28.8443 116.93 28.6353 116.72 28.4262 116.51L26.3361 92.1582C25.709 87.3299 26.7541 85.2306 26.9631 85.2306L30.9344 76.2037C34.2787 70.1158 40.1312 70.3258 40.3402 70.3258H49.9549C50.1639 70.3258 50.582 70.5357 50.582 70.9555C50.582 71.1655 50.373 71.5853 49.9549 71.5853H40.3402C40.1312 71.5853 34.9057 71.5853 31.7705 76.8335L27.7992 85.8604C27.7992 85.8604 26.7541 87.7498 27.3812 92.3682L29.4713 116.72C29.4713 116.51 29.2623 116.93 29.0533 116.93Z" fill="#232738"/>
<path d="M51.209 116.09C42.0123 116.09 32.8156 115.88 23.8279 115.88C23.2008 115.88 23.2008 116.93 23.8279 116.93C33.0246 116.93 42.2213 117.14 51.209 117.14C51.8361 117.14 51.8361 116.09 51.209 116.09Z" fill="#232738"/>
<path d="M52.4631 119.029C42.6393 119.659 32.8156 120.498 22.9918 121.128C22.3648 121.128 22.3648 122.178 22.9918 122.178C32.8156 121.548 42.6393 120.708 52.4631 120.079C53.2992 120.079 53.2992 119.029 52.4631 119.029Z" fill="#232738"/>
<path d="M53.5082 122.808C43.0574 122.808 32.8156 122.808 22.3648 122.598C21.7377 122.598 21.7377 123.647 22.3648 123.647C32.8156 123.647 43.0574 123.647 53.5082 123.857C54.3443 124.067 54.3443 122.808 53.5082 122.808Z" fill="#232738"/>
<path d="M168.049 102.865C166.795 103.914 165.123 104.544 163.451 104.544C163.033 104.544 162.615 104.544 162.197 104.544C161.779 104.544 161.361 104.544 160.943 104.334C159.27 103.914 157.598 103.074 156.135 102.445C155.717 102.235 155.299 102.235 154.881 102.025C154.463 101.815 153.836 101.815 153.418 101.815C152.164 101.815 150.701 102.235 149.656 102.865C149.238 103.074 149.029 103.284 148.611 103.494C148.402 103.704 148.193 103.704 147.984 103.914C146.311 104.964 144.848 106.013 143.176 106.643C142.967 106.643 142.967 106.643 142.758 106.853C142.34 107.063 142.131 107.063 141.922 107.063C141.086 107.273 140.041 107.063 139.205 106.853C138.369 100.345 137.742 93.8377 137.533 87.12C140.459 85.8604 142.758 82.9214 143.176 79.7725C143.385 77.8832 143.176 75.7839 141.922 74.3144C140.877 73.0548 138.996 72.635 137.324 73.0548C135.861 73.4747 134.398 74.7342 133.77 76.2037C132.307 71.7953 132.098 66.9669 133.143 62.3485C131.262 64.4478 128.336 65.7074 125.619 66.3371C117.676 68.4364 108.898 67.5967 101.582 63.818H101.373C99.4918 70.1158 97.8197 76.4137 97.8197 82.9214C97.8197 89.6391 100.328 96.7766 105.553 100.975C108.27 103.074 111.615 104.334 114.959 104.544C114.959 104.754 114.959 104.964 114.75 105.174C114.332 106.223 114.123 107.483 113.705 108.533C111.824 109.162 109.525 108.323 107.643 107.483C105.762 106.643 104.09 105.594 102 105.174C101.582 105.174 101.164 104.964 100.955 104.964H100.746C98.8648 104.964 96.9836 105.594 95.1025 106.223C94.6844 106.433 94.2664 106.433 93.8484 106.643C92.8033 106.853 91.7582 107.063 90.7131 107.063C89.459 107.063 88.2049 106.643 86.9508 106.013C86.5328 105.804 86.3238 105.594 85.9057 105.384C85.4877 105.174 84.8607 104.754 84.4426 104.544C82.9795 103.704 81.7254 102.865 80.2623 102.235C79.8443 102.025 79.6353 102.025 79.2172 101.815C79.0082 101.815 78.5902 101.605 78.3811 101.605C76.5 101.185 74.2008 101.605 72.9467 103.074C72.3197 101.815 72.5287 100.345 73.1557 99.0858C73.9918 97.4064 75.2459 96.1469 76.709 94.8873C77.9631 93.6277 79.2172 92.1582 79.6352 90.4788C80.2623 87.3299 78.1721 83.9711 79.2172 81.0321C79.8443 79.1427 81.7254 77.8832 83.6066 77.0434C85.4877 76.2037 87.5779 75.7839 89.041 74.5243C91.7582 72.635 93.0123 69.2761 93.4303 66.1272C94.0574 62.9783 94.0574 59.6195 94.8934 56.4705C96.5656 50.5926 101.373 45.9742 107.016 43.455C112.66 40.9359 118.93 40.3061 124.992 40.516C129.172 40.726 133.77 41.3557 137.115 43.8749C140.041 45.9742 141.922 49.9628 141.086 53.5316C142.758 53.1117 144.639 53.3216 146.311 53.9514C148.611 55.001 150.283 56.8904 151.119 59.1996C151.746 61.0889 151.537 63.1882 151.746 65.2875C151.955 67.3868 152.373 69.486 154.045 70.9555C155.926 72.635 159.061 72.425 160.943 74.3144C162.824 76.2037 162.197 79.3526 161.57 81.8718C160.734 84.3909 159.898 87.3299 161.152 89.6391C162.197 91.5285 164.078 92.5781 165.75 94.0476C167.631 96.5667 168.467 99.7156 168.049 102.865Z" fill="#353535"/>
<path d="M143.176 79.7725C142.549 82.9214 140.459 85.8604 137.533 87.12C137.742 93.6277 138.16 100.345 139.205 106.853C139.414 108.323 139.623 110.002 139.832 111.472C135.652 116.3 131.053 121.128 126.246 125.327C121.857 120.498 117.467 115.67 113.078 110.842C113.287 110.002 113.496 109.162 113.914 108.323C114.332 107.063 114.75 105.594 114.959 104.334C111.615 104.124 108.27 102.865 105.553 100.765C100.328 96.5667 97.8197 89.4292 97.8197 82.7115C97.8197 76.2037 99.4918 69.9059 101.373 63.6081C108.689 67.3868 117.676 68.4364 125.619 66.3371C128.336 65.4974 131.262 64.4478 133.143 62.3485C132.098 66.9669 132.307 71.7953 133.77 76.2037C134.398 74.7342 135.861 73.4747 137.533 73.2647C139.205 72.8449 140.877 73.4747 142.131 74.5243C143.176 75.7839 143.594 77.8832 143.176 79.7725Z" fill="white"/>
<path d="M142.34 74.1045C141.086 72.8449 138.996 72.2151 137.115 72.635C135.861 72.8449 134.607 73.6846 133.77 74.7342L132.934 76.4137C132.934 76.6236 133.143 76.8335 133.561 76.8335C133.77 76.8335 133.98 76.6236 134.189 76.4137C134.816 75.1541 136.07 74.1044 137.324 73.6846C138.787 73.2647 140.25 73.8945 141.295 74.9442C142.131 75.7839 142.549 77.0434 142.549 78.5129C142.549 78.9328 142.549 79.3526 142.549 79.7725C142.131 82.7115 140.041 85.4405 137.324 86.7001C137.115 86.91 136.906 87.12 136.906 87.3299C137.115 93.8376 137.742 100.555 138.578 107.063C138.787 108.533 138.996 110.002 139.205 111.472C135.234 116.09 130.844 120.498 126.246 124.697L122.275 120.289C119.348 117.14 116.631 113.991 113.705 111.052C113.914 110.212 114.123 109.582 114.332 108.743L115.377 104.754C115.377 104.544 115.377 104.334 115.377 104.124C115.168 103.914 115.168 103.914 114.959 103.914C111.615 103.704 108.48 102.445 105.971 100.345C101.373 96.5667 98.6557 90.2689 98.4467 82.7115C98.4467 76.6236 99.9098 70.9555 101.791 64.6577V63.1882C101.582 63.1882 101.373 63.1882 101.164 63.1882C100.955 63.1882 100.955 63.3981 100.746 63.6081C98.8648 70.3258 97.1926 76.4137 97.1926 82.9214C97.1926 90.6887 100.119 97.6163 105.135 101.605C107.643 103.704 110.779 104.964 114.123 105.384L113.287 108.533C113.078 109.372 112.869 110.002 112.66 110.842V111.052C112.66 111.262 112.66 111.472 112.869 111.681C115.795 114.83 118.721 117.979 121.648 121.338L126.037 126.166C126.246 126.376 126.246 126.376 126.455 126.376C126.664 126.376 126.664 126.376 126.873 126.166C131.68 121.758 136.279 117.14 140.668 112.311C140.877 112.101 140.877 111.891 140.877 111.681C140.668 110.212 140.459 108.743 140.25 107.063C139.414 100.765 138.787 94.2575 138.578 87.9597C140.041 87.12 141.295 86.0703 142.34 84.8108C143.385 83.5512 144.012 81.8718 144.221 80.1924C144.221 77.6732 143.803 75.364 142.34 74.1045Z" fill="#232738"/>
<path d="M114.75 105.174C114.959 105.174 115.377 105.174 115.586 105.174C120.184 105.384 124.783 103.494 128.336 100.345C128.963 99.9255 128.127 99.0858 127.5 99.5057C124.156 102.655 119.557 104.124 115.168 103.914L114.75 105.174Z" fill="#232738"/>
<path d="M89.041 98.8759C87.9959 101.185 87.3689 103.494 86.5328 106.013C86.1148 105.804 85.9057 105.594 85.4877 105.384C86.1148 103.074 86.9508 100.765 87.7869 98.4561C87.9959 98.2461 88.2049 98.0362 88.4139 98.0362C89.041 98.2461 89.25 98.456 89.041 98.8759Z" fill="#232738"/>
<path d="M95.5205 101.605C95.3115 103.074 95.1025 104.754 94.8934 106.223C94.4754 106.433 94.0574 106.433 93.6393 106.643C93.8484 104.964 94.0574 103.284 94.2664 101.605C94.2664 101.395 94.4754 100.975 94.8934 100.975C95.3115 100.975 95.5205 101.185 95.5205 101.605Z" fill="#232738"/>
<path d="M102.627 100.765C102.418 102.235 102.209 103.704 102 105.174C101.582 105.174 101.164 104.964 100.955 104.964C101.164 103.494 101.373 102.235 101.582 100.765C101.582 100.555 101.791 100.135 102.209 100.135C102.418 100.135 102.627 100.555 102.627 100.765Z" fill="#232738"/>
<path d="M142.967 106.853C142.758 106.853 142.758 106.853 142.549 107.063C142.34 107.063 142.131 107.063 141.922 107.063C141.713 105.804 141.713 104.754 141.504 103.494C141.504 103.074 141.713 102.865 142.131 102.865C142.549 102.865 142.758 103.074 142.758 103.494C142.758 104.754 142.967 105.804 142.967 106.853Z" fill="#232738"/>
<path d="M149.656 103.284C149.238 103.494 149.029 103.704 148.611 103.914C148.193 101.605 147.984 99.5057 147.566 97.1965C147.566 96.9866 147.775 96.5667 148.193 96.5667C148.611 96.5667 148.82 96.7766 148.82 97.1965C149.029 99.0858 149.447 101.185 149.656 103.284Z" fill="#232738"/>
<path d="M156.344 98.4561C156.135 99.9256 156.135 101.395 156.135 102.655C155.717 102.445 155.299 102.445 154.881 102.235C154.881 100.975 154.881 99.5057 155.09 98.2461C155.09 98.0362 155.299 97.6163 155.717 97.6163C156.135 97.8263 156.344 98.0362 156.344 98.4561Z" fill="#232738"/>
<path d="M163.451 104.754C163.033 104.754 162.615 104.754 162.197 104.754C161.988 102.445 161.779 100.135 161.57 97.8263C161.57 97.6163 161.779 97.1965 162.197 97.1965C162.615 97.1965 162.824 97.4064 162.824 97.8263C163.033 100.135 163.242 102.445 163.451 104.754Z" fill="#232738"/>
<path d="M112.869 86.0703C112.869 87.12 112.033 87.9597 110.779 87.9597C110.361 87.9597 110.152 87.9597 109.734 87.9597C108.898 87.9597 108.061 87.9597 107.225 87.7497C106.598 87.5398 105.971 87.3299 105.971 86.4902C105.762 85.6505 106.389 84.8107 106.598 84.181C107.434 81.8718 108.48 79.7725 109.525 77.6732C109.943 76.4136 111.615 72.8449 112.451 72.6349C113.078 72.6349 112.869 82.0817 112.869 86.0703Z" fill="#353535"/>
<path d="M125.619 90.059C129.082 90.059 131.889 87.2393 131.889 83.7611C131.889 80.2829 129.082 77.4633 125.619 77.4633C122.156 77.4633 119.348 80.2829 119.348 83.7611C119.348 87.2393 122.156 90.059 125.619 90.059Z" fill="#353535"/>
<path d="M123.947 90.6887C123.947 90.8987 123.947 90.8987 123.947 90.6887C122.902 93.4178 120.393 95.3071 117.467 95.0972C117.258 95.0972 117.049 95.0972 116.84 95.0972C116.422 95.0972 116.004 94.8873 115.795 94.8873C113.705 94.2575 111.824 92.3682 112.242 90.059C112.869 87.9597 114.75 87.5398 116.84 87.12C117.258 86.91 117.676 86.91 118.094 86.7001C118.93 86.2803 119.557 85.8604 120.393 85.6505C121.648 85.2306 123.111 85.6505 123.738 86.91C123.947 87.12 124.156 87.5398 124.156 87.7497C124.365 88.7994 124.156 89.849 123.947 90.6887Z" fill="#232738"/>
<path d="M123.947 90.6887C123.947 90.8987 123.947 90.8987 123.947 90.6887C122.902 93.4178 120.393 95.3071 117.467 95.0972C117.258 95.0972 117.049 95.0972 116.84 95.0972C116.84 94.6774 116.84 94.4674 117.049 94.0476C117.258 93.4178 117.467 92.788 117.885 92.1582C119.348 90.4788 121.857 89.849 123.947 90.6887Z" fill="#FFAAAA"/>
<path d="M108.061 75.364C108.061 77.0435 106.807 78.5129 105.344 78.5129C103.881 78.5129 102.627 77.0435 102.627 75.364C102.627 73.6846 103.881 72.2151 105.344 72.2151C107.016 72.2151 108.061 73.6846 108.061 75.364Z" fill="#232738"/>
<path d="M122.066 75.364C122.066 77.0435 120.811 78.5129 119.348 78.5129C117.885 78.5129 116.631 77.0435 116.631 75.364C116.631 73.6846 117.885 72.2151 119.348 72.2151C120.811 72.2151 122.066 73.6846 122.066 75.364Z" fill="#232738"/>
<path d="M108.061 68.8563C107.852 68.4364 107.643 68.2265 107.434 68.0166C107.225 68.0166 107.225 68.0166 107.016 67.8066C106.807 67.8066 106.598 67.8066 106.18 67.8066C104.926 68.0166 103.881 68.2265 102.836 68.6463C102.418 68.8563 102.209 69.0662 102 69.2761C101.791 69.486 101.791 70.1158 101.791 70.3258C102 70.7456 102.209 70.9555 102.418 71.1655C102.836 71.3754 103.254 71.3754 103.463 71.3754C104.508 70.9555 105.762 70.7456 106.807 70.5357C107.225 70.5357 107.434 70.1158 107.643 69.9059C108.061 69.696 108.061 69.2761 108.061 68.8563Z" fill="#232738"/>
<path d="M122.902 69.0662L122.693 68.8563C122.484 68.6463 122.275 68.6463 122.066 68.4364C121.648 68.2265 121.02 68.0166 120.393 68.0166C119.766 68.0166 119.139 67.8066 118.303 67.8066C117.885 67.8066 117.467 68.0166 117.258 68.2265C117.049 68.4364 116.84 68.8563 116.84 69.2761C116.84 69.696 117.049 70.1158 117.258 70.3258C117.467 70.5357 117.885 70.7456 118.303 70.7456C118.721 70.7456 119.139 70.7456 119.557 70.7456C120.184 70.7456 120.602 70.9555 121.02 71.1655C121.439 71.3754 121.857 71.1655 122.066 70.9555C122.275 70.7456 122.693 70.5357 122.693 70.1158C123.111 69.9059 123.111 69.4861 122.902 69.0662Z" fill="#232738"/>
<path d="M108.898 146.11C108.898 152.198 105.762 157.656 100.746 160.805L96.1475 170.251H87.3689L82.5615 160.805C77.7541 157.656 74.4098 152.407 74.4098 146.11C74.4098 136.453 82.1434 128.896 91.5492 128.896C101.164 128.896 108.898 136.663 108.898 146.11Z" fill="white"/>
<path d="M98.0287 170.251H84.6516V175.709H98.0287V170.251Z" fill="white"/>
<path d="M98.2377 169.831H84.8607C84.6516 169.831 84.4426 170.041 84.4426 170.251V175.709C84.4426 175.919 84.6516 176.129 84.8607 176.129H98.2377C98.4467 176.129 98.6557 175.919 98.6557 175.709V170.251C98.6557 170.041 98.4467 169.831 98.2377 169.831ZM85.2787 170.671H95.1025C91.7582 171.301 88.623 171.721 85.2787 172.141V170.671ZM97.6107 171.091V174.87C93.4303 174.45 89.25 174.03 85.2787 173.61V173.19C89.459 172.351 93.6393 171.721 97.6107 171.091ZM85.2787 174.45C87.9959 174.66 90.7131 175.08 93.4303 175.29H85.2787V174.45Z" fill="#232738"/>
<path d="M90.0861 169.831C88.4139 164.373 86.7418 158.915 85.0697 153.247C84.8607 152.617 83.8156 152.827 84.0246 153.457C85.6967 158.915 87.3689 164.373 89.041 170.041C89.25 170.881 90.2951 170.671 90.0861 169.831Z" fill="#EEC95B"/>
<path d="M100.328 146.32C97.8197 154.297 95.5205 162.274 93.4303 170.251C93.2213 170.881 94.2664 171.301 94.4754 170.461C96.5656 162.484 98.8648 154.507 101.373 146.529C101.582 145.9 100.537 145.48 100.328 146.32Z" fill="#EEC95B"/>
<path d="M80.8893 134.774C77.9631 137.503 76.291 141.491 76.291 145.48C76.291 146.11 77.3361 146.11 77.3361 145.48C77.3361 141.701 79.0082 138.132 81.7254 135.613C82.1434 134.983 81.3074 134.144 80.8893 134.774Z" fill="white"/>
<path d="M78.3811 150.938C78.3811 150.728 78.1721 150.728 78.1721 150.518C78.1721 150.308 78.1721 150.308 77.9631 150.308C77.9631 150.098 77.7541 149.678 77.7541 149.468C77.7541 149.259 77.5451 148.839 77.5451 148.629C77.5451 148.419 77.5451 148.419 77.5451 148.209V147.999C77.5451 147.999 77.5451 147.999 77.5451 147.789C77.5451 147.579 77.3361 147.159 76.918 147.159C76.709 147.159 76.291 147.369 76.291 147.789C76.5 149.049 76.709 150.308 77.3361 151.358C77.5451 151.568 77.7541 151.778 78.1721 151.568C78.3812 151.358 78.3811 151.148 78.3811 150.938Z" fill="white"/>
<path d="M101.791 153.037C101.164 154.717 99.2828 155.346 97.8197 154.717C96.7746 154.507 95.9385 153.877 95.3115 153.037C95.5205 152.827 95.5205 152.407 95.7295 152.198C96.1475 150.938 96.3566 149.888 96.3566 148.629C96.3566 147.789 96.3566 146.32 95.7295 145.69C94.8934 144.85 93.8484 145.69 93.4303 146.529C92.8033 147.579 92.8033 148.629 92.8033 149.888C93.0123 151.148 93.4303 152.407 94.0574 153.457C93.6393 154.087 93.2213 154.717 92.5943 155.137C91.7582 155.766 90.9221 155.346 90.2951 154.927C90.5041 154.087 90.7131 153.457 90.9221 152.617C91.1312 151.358 90.9221 150.098 90.7131 149.049C90.5041 148.209 90.0861 146.949 89.25 146.529C88.2049 146.11 87.5779 146.949 87.1598 147.789C86.7418 149.049 86.9508 150.308 87.1598 151.568C87.5779 152.827 87.9959 154.297 89.041 155.346C88.832 155.976 88.4139 156.396 87.9959 156.816C86.7418 158.075 84.0246 158.076 83.6066 155.976C83.3975 155.346 82.3525 155.556 82.5615 156.186C82.9795 158.495 85.4877 159.335 87.5779 158.495C88.623 158.075 89.459 157.236 89.8771 156.186C90.2951 156.396 90.7131 156.606 91.3402 156.816C93.0123 157.026 94.0574 155.976 94.8935 154.507C95.5205 155.137 96.1475 155.766 96.9836 155.976C99.2828 157.026 102 156.186 103.045 153.667C103.254 152.617 102.209 152.407 101.791 153.037ZM89.041 152.827C88.4139 151.358 87.5779 149.049 88.4139 147.579C89.041 146.529 89.459 148.419 89.668 148.839C89.8771 149.678 90.0861 150.518 90.0861 151.358C90.0861 152.198 89.8771 153.037 89.668 153.877C89.25 153.457 89.25 153.247 89.041 152.827ZM94.4754 151.568C93.8484 150.098 93.4303 148.209 94.2664 146.949C94.4754 146.529 94.8934 146.32 95.1025 146.949C95.3115 147.369 95.3115 147.789 95.3115 148.209C95.3115 149.049 95.3115 149.888 95.1025 150.728C95.1025 151.148 94.8934 151.568 94.6844 151.988C94.6844 151.778 94.4754 151.778 94.4754 151.568Z" fill="#EEC95B"/>
<path d="M35.3238 163.744C34.9057 164.583 34.2787 165.213 33.6517 165.843C33.4426 165.633 33.0246 165.423 32.8156 165.213C33.2336 164.793 33.6517 164.163 34.0697 163.744C34.9057 162.484 35.1148 161.014 35.1148 159.545C35.1148 158.075 34.4877 156.186 32.8156 156.186H32.6066C30.9344 156.186 30.3074 158.075 30.3074 159.545C30.3074 161.014 30.7254 162.484 31.3525 163.744C31.7705 164.373 32.1885 164.793 32.6066 165.213C32.3976 165.423 31.9795 165.633 31.7705 165.843C31.1435 165.213 30.5164 164.583 30.0984 163.744C29.2623 162.064 29.0533 160.385 29.2623 158.495C29.4713 156.816 30.7254 155.137 32.6066 154.927H32.8156C34.6967 154.927 35.7418 156.606 36.1598 158.495C36.5779 160.385 36.1598 162.274 35.3238 163.744Z" fill="#272438"/>
<path d="M47.8648 163.744C47.4467 164.583 46.8197 165.213 46.1926 165.843C45.9836 165.633 45.5656 165.423 45.3566 165.213C45.7746 164.793 46.1926 164.163 46.6107 163.744C47.4467 162.484 47.6558 161.014 47.6558 159.545C47.6558 158.075 47.0287 156.186 45.3566 156.186H45.1476C43.4754 156.186 42.8484 158.075 42.8484 159.545C42.8484 161.014 43.2664 162.484 43.8935 163.744C44.3115 164.373 44.7295 164.793 45.1476 165.213C44.9385 165.423 44.5205 165.633 44.3115 165.843C43.6844 165.213 43.0574 164.583 42.6394 163.744C41.8033 162.064 41.5943 160.385 41.8033 158.495C42.0123 156.816 43.2664 155.137 44.9385 154.927H45.1476C47.0287 154.927 48.0738 156.606 48.4918 158.495C48.9099 160.385 48.7008 162.274 47.8648 163.744Z" fill="#272438"/>
<path d="M60.1967 163.744C59.7787 164.583 59.1516 165.213 58.5246 165.843C58.3156 165.633 57.8975 165.423 57.6885 165.213C58.1066 164.793 58.5246 164.163 58.9426 163.744C59.7787 162.484 59.9877 161.014 59.9877 159.545C59.9877 158.075 59.3607 156.186 57.6885 156.186H57.4795C55.8074 156.186 55.1803 158.075 55.1803 159.545C55.1803 161.014 55.5984 162.484 56.2254 163.744C56.6434 164.373 57.0615 164.793 57.4795 165.213C57.2705 165.423 56.8525 165.633 56.6434 165.843C56.0164 165.213 55.3893 164.583 54.9713 163.744C54.1352 162.064 53.9262 160.385 54.1352 158.495C54.3443 156.816 55.5984 155.137 57.2705 154.927H57.4795C59.3607 154.927 60.4057 156.606 60.6148 158.495C61.2418 160.385 61.0328 162.274 60.1967 163.744Z" fill="#272438"/>
<path d="M72.5287 163.744C72.1107 164.583 71.4836 165.213 70.8566 165.843C70.6476 165.633 70.2295 165.423 70.0205 165.213C70.4385 164.793 70.8566 164.163 71.2746 163.744C72.1107 162.484 72.3197 161.014 72.3197 159.545C72.3197 158.075 71.6926 156.186 70.0205 156.186H69.8115C68.1394 156.186 67.5123 158.075 67.5123 159.545C67.5123 161.014 67.9303 162.484 68.5574 163.744C68.9754 164.373 69.3935 164.793 69.8115 165.213C69.6025 165.423 69.1844 165.633 68.9754 165.843C68.3484 165.213 67.7213 164.583 67.3033 163.744C66.4672 162.064 66.2582 160.385 66.4672 158.495C66.6762 156.816 67.9303 155.137 69.8115 154.927H70.0205C71.9016 154.927 72.9467 156.606 73.1557 158.495C73.5738 160.385 73.3648 162.274 72.5287 163.744Z" fill="#272438"/>
<path d="M76.5 168.362C74.2008 168.782 71.9016 168.152 70.0205 166.892C68.5574 167.942 66.6762 168.572 65.0041 168.572H62.7049C60.8238 168.572 59.1516 167.942 57.6885 166.892C56.2254 167.942 54.3443 168.572 52.4631 168.572C51.8361 168.572 51.209 168.572 50.582 168.572C48.7008 168.572 46.8197 167.942 45.3566 166.892C43.8935 167.942 42.0123 168.572 40.1312 168.572H38.041C36.1598 168.572 34.2787 167.942 32.8156 166.892C31.3525 167.942 29.4713 168.572 27.7992 168.572H27.3812C27.1721 168.572 26.7541 168.362 26.7541 167.942C26.7541 167.732 26.9631 167.522 27.3812 167.522C29.0533 167.732 30.7254 167.102 31.9795 166.263C32.1885 166.053 32.6066 165.843 32.8156 165.633C33.0246 165.843 33.4426 166.053 33.6516 166.263C35.1148 167.312 36.9959 167.732 38.8771 167.522C38.8771 167.522 38.8771 167.522 39.0861 167.522C40.9672 167.732 42.8484 167.312 44.3115 166.263C44.5205 166.053 44.9385 165.843 45.1475 165.633C45.3566 165.843 45.7746 166.053 45.9836 166.263C47.4467 167.312 49.3279 167.732 51.209 167.522H51.418C53.2992 167.732 55.1803 167.312 56.6434 166.263C56.8525 166.053 57.2705 165.843 57.4795 165.633C57.6885 165.843 58.1066 166.053 58.3156 166.263C59.7787 167.312 61.6598 167.732 63.541 167.522C63.541 167.522 63.541 167.522 63.75 167.522C63.75 167.522 63.75 167.522 63.959 167.522C65.8402 167.732 67.7213 167.312 69.1844 166.263C69.3934 166.053 69.8115 165.843 70.0205 165.633C70.2295 165.843 70.6476 166.053 70.8566 166.263C72.3197 167.312 74.2008 167.732 76.082 167.522C76.918 167.102 77.1271 168.152 76.5 168.362Z" fill="#272438"/>
<path d="M167.422 65.7073L164.078 72.8449L160.525 65.7073L164.078 58.1499L167.422 65.7073Z" fill="white"/>
<path d="M173.275 74.7342L170.766 80.1924L168.258 74.7342L170.766 69.0662L173.275 74.7342Z" fill="white"/>
<path d="M176.828 60.2492L174.111 65.4974L171.602 60.2492L174.111 54.5812L176.828 60.2492Z" fill="white"/>
<path d="M81.3074 58.3599L77.9631 65.4974L74.4098 58.3599L77.9631 50.8025L81.3074 58.3599Z" fill="#232738"/>
<path d="M87.3688 67.3868L84.6516 72.8449L82.1434 67.3868L84.6516 61.9286L87.3688 67.3868Z" fill="#232738"/>
<path d="M90.7131 52.9018L87.9959 58.15L85.4877 52.9018L87.9959 47.2337L90.7131 52.9018Z" fill="#232738"/>
</g>
<defs>
<clipPath id="clip0_18_245">
<rect width="204" height="203" fill="white"/>
</clipPath>
</defs>
</svg>
