<svg width="35" height="35" viewBox="0 0 35 35" fill="none" xmlns="http://www.w3.org/2000/svg">
<g clip-path="url(#clip0_16_196)">
<path d="M11.6667 23.45C18.11 23.45 23.3333 18.2005 23.3333 11.725C23.3333 5.24946 18.11 0 11.6667 0C5.22334 0 0 5.24946 0 11.725C0 18.2005 5.22334 23.45 11.6667 23.45Z" fill="#EEC95B"/>
<path d="M6.49451 15.2108L5.26324 16.4482L23.8554 35.1333L25.0867 33.8959L6.49451 15.2108Z" fill="#112340"/>
<path d="M1.8339 -0.0253045L0.602455 1.21195L9.95877 10.6177L11.1902 9.38046L1.8339 -0.0253045Z" fill="#112340"/>
<path d="M25.4229 21.35C20.199 21.35 15.8458 17.15 15.8458 11.725C15.8458 6.3 20.0249 2.1 25.4229 2.1C30.8209 2.1 35 6.3 35 11.725C35 17.15 30.6468 21.35 25.4229 21.35ZM25.4229 4.025C21.0697 4.025 17.5871 7.525 17.5871 11.9C17.5871 16.275 21.0697 19.775 25.4229 19.775C29.7761 19.775 33.2587 16.275 33.2587 11.9C33.2587 7.525 29.7761 4.025 25.4229 4.025Z" fill="#112340"/>
</g>
<defs>
<clipPath id="clip0_16_196">
<rect width="35" height="35" fill="white"/>
</clipPath>
</defs>
</svg>
