<svg width="90" height="22" viewBox="0 0 90 22" fill="none" xmlns="http://www.w3.org/2000/svg">
<g clip-path="url(#clip0_16_205)">
<path d="M44.8894 9.33334C45.774 9.33334 46.6585 10 46.6585 11.1111C46.6585 12 45.9951 12.8889 44.8894 12.8889C44.0049 12.8889 43.1204 12.2222 43.1204 11.1111C43.3415 10 44.0049 9.33334 44.8894 9.33334ZM53.7346 9.33334C54.6192 9.33334 55.5037 10 55.5037 11.1111C55.5037 12 54.8403 12.8889 53.7346 12.8889C52.8501 12.8889 51.9656 12.2222 51.9656 11.1111C52.1867 10 52.8501 9.33334 53.7346 9.33334ZM62.5799 9.33334C63.4644 9.33334 64.3489 10 64.3489 11.1111C64.3489 12 63.6855 12.8889 62.5799 12.8889C61.6953 12.8889 60.8108 12.2222 60.8108 11.1111C61.0319 10 61.6953 9.33334 62.5799 9.33334Z" fill="#112340"/>
<path d="M70.7617 9.33334C71.6462 9.33334 72.5307 10 72.5307 11.1111C72.5307 12 71.8673 12.8889 70.7617 12.8889C69.8771 12.8889 68.9926 12.2222 68.9926 11.1111C68.9926 10 69.8771 9.33334 70.7617 9.33334ZM79.6069 9.33334C80.4914 9.33334 81.3759 10 81.3759 11.1111C81.3759 12 80.7125 12.8889 79.6069 12.8889C78.7224 12.8889 77.8378 12.2222 77.8378 11.1111C77.8378 10 78.7224 9.33334 79.6069 9.33334ZM88.4521 9.33334C89.3366 9.33334 90.2211 10 90.2211 11.1111C90.2211 12 89.5577 12.8889 88.4521 12.8889C87.5676 12.8889 86.683 12.2222 86.683 11.1111C86.683 10 87.5676 9.33334 88.4521 9.33334Z" fill="#112340"/>
<path d="M1.76904 9.33334C2.65356 9.33334 3.53808 10 3.53808 11.1111C3.53808 12 2.87469 12.8889 1.76904 12.8889C0.663391 12.6667 0 12 0 10.8889C0 10 0.663391 9.33334 1.76904 9.33334ZM10.6143 9.33334C11.4988 9.33334 12.3833 10 12.3833 11.1111C12.3833 12 11.7199 12.8889 10.6143 12.8889C9.5086 12.6667 8.84521 12 8.84521 10.8889C8.84521 10 9.5086 9.33334 10.6143 9.33334Z" fill="#112340"/>
<path d="M27.6413 22C21.4496 22 16.8059 17.1111 16.8059 11.1111C16.8059 4.88889 21.6708 0 27.6413 0C33.6118 0 38.4767 4.88889 38.4767 10.8889C38.4767 16.8889 33.8329 22 27.6413 22ZM27.6413 2.22222C22.7764 2.22222 19.0172 6.22222 19.0172 10.8889C19.0172 15.7778 22.7764 19.5556 27.6413 19.5556C32.5061 19.5556 36.2654 15.5556 36.2654 10.8889C36.4865 6.22222 32.5061 2.22222 27.6413 2.22222Z" fill="#112340"/>
</g>
<defs>
<clipPath id="clip0_16_205">
<rect width="90" height="22" fill="white"/>
</clipPath>
</defs>
</svg>
