<svg width="31" height="30" viewBox="0 0 31 30" fill="none" xmlns="http://www.w3.org/2000/svg">
<g clip-path="url(#clip0_16_188)">
<path d="M19.1314 11.9653L29.2286 22.7168V1.38728L19.1314 11.9653Z" fill="#E8DEB3"/>
<path d="M31 24.104H13.8171V10.7514H0V0H31V24.104ZM17.36 20.6358H27.6343V3.46821H3.54286V7.28324H17.36V20.6358Z" fill="#112340"/>
<path d="M8.50286 28.6127C8.50286 27.9191 9.03429 27.2254 9.92 27.2254C10.6286 27.2254 11.3371 27.7457 11.3371 28.6127C11.3371 29.3064 10.8057 30 9.92 30C9.21143 30 8.50286 29.4798 8.50286 28.6127ZM8.50286 21.6763C8.50286 20.9827 9.03429 20.289 9.92 20.289C10.6286 20.289 11.3371 20.8092 11.3371 21.6763C11.3371 22.3699 10.8057 23.0636 9.92 23.0636C9.21143 23.0636 8.50286 22.5434 8.50286 21.6763ZM8.50286 14.7399C8.50286 14.0462 9.03429 13.3526 9.92 13.3526C10.6286 13.3526 11.3371 13.8728 11.3371 14.7399C11.16 15.6069 10.6286 16.1272 9.92 16.1272C9.21143 16.1272 8.50286 15.6069 8.50286 14.7399Z" fill="#112340"/>
</g>
<defs>
<clipPath id="clip0_16_188">
<rect width="31" height="30" fill="white"/>
</clipPath>
</defs>
</svg>
